<svg xmlns="http://www.w3.org/2000/svg" width="32.40000000000009" height="32"><rect id="backgroundrect" width="100%" height="100%" x="0" y="0" fill="none" stroke="none" class="" style=""/><g class="currentLayer" style=""><title>Layer 1</title><path d="M31.061578392982483,17.298723578453064 L26.699496865272522,21.66364896297455 H22.555001854896545 a0.8505678176879883,0.8505678176879883 0 0 0 -0.8487695455551147,0.8487695455551147 v2.487565517425537 a0.4996110796928406,0.4996110796928406 0 0 1 -0.49991074204444885,0.4909196197986603 H18.042020440101624 a0.4996110796928406,0.4996110796928406 0 0 1 -0.49991074204444885,-0.49991074204444885 V18.948009848594666 l2.590365409851074,-2.5902154445648193 a0.49991074204444885,0.49991074204444885 0 0 1 0.6947203278541565,0.00899120420217514 l1.143381118774414,1.143381118774414 h2.9970669746398926 l1.9331083297729492,-1.9317600727081299 V13.042588591575623 L24.920289635658264,11.053435683250427 h-2.6643929481506348 L11.663662552833557,21.6455215215683 H5.490604519844055 L1.0909091234207153,17.248972296714783 V11.316277861595154 L5.495248913764954,6.9120882749557495 H11.515605568885803 L14.125604271888733,9.52193295955658 a0.5008098483085632,0.5008098483085632 0 0 1 0,0.6932215690612793 L11.906874299049377,12.426391959190369 a0.48987069725990295,0.48987069725990295 0 0 1 -0.6902247071266174,0.04990117996931076 c-0.012138125486671925,-0.01063959114253521 -0.024126391857862473,-0.02262786217033863 -0.03626450523734093,-0.03326742723584175 l-1.3834460973739624,-1.3786509037017822 H7.2140666246414185 L5.243045926094055,13.035096526145935 V15.533151030540466 L7.207922577857971,17.50117528438568 H9.943345665931702 L20.537229180336,6.909090876579285 H26.640906929969788 l4.4206743240356445,4.4206743240356445 v5.968958854675293 z" fill="#ffffff" id="svg_1" class="" fill-opacity="1"/></g></svg>